<svg width="502" height="502" viewBox="0 0 502 502" fill="none" xmlns="http://www.w3.org/2000/svg">
<g filter="url(#filter0_d_49_5)">
<rect x="38" width="426" height="426" rx="213" fill="#F5F5F4"/>
<rect x="44.0857" y="6.08571" width="413.829" height="413.829" rx="206.914" stroke="black" stroke-width="12.1714"/>
</g>
<path d="M215.522 272.577H232.03C239.218 272.577 242.879 268.916 242.879 261.727V168.473C242.879 161.284 239.218 157.823 232.03 157.623H215.522C208.333 157.623 204.673 161.284 204.673 168.473V261.727C204.539 268.916 208.2 272.577 215.522 272.577ZM269.97 272.577H286.478C293.733 272.577 297.327 268.916 297.327 261.727V168.473C297.327 161.284 293.733 157.623 286.478 157.623H269.97C262.782 157.623 259.121 161.284 259.121 168.473V261.727C259.121 268.916 262.648 272.577 269.97 272.577Z" fill="black"/>
<defs>
<filter id="filter0_d_49_5" x="0.133335" y="0" width="501.733" height="501.733" filterUnits="userSpaceOnUse" color-interpolation-filters="sRGB">
<feFlood flood-opacity="0" result="BackgroundImageFix"/>
<feColorMatrix in="SourceAlpha" type="matrix" values="0 0 0 0 0 0 0 0 0 0 0 0 0 0 0 0 0 0 127 0" result="hardAlpha"/>
<feOffset dy="37.8667"/>
<feGaussianBlur stdDeviation="18.9333"/>
<feComposite in2="hardAlpha" operator="out"/>
<feColorMatrix type="matrix" values="0 0 0 0 0 0 0 0 0 0 0 0 0 0 0 0 0 0 0.01 0"/>
<feBlend mode="normal" in2="BackgroundImageFix" result="effect1_dropShadow_49_5"/>
<feBlend mode="normal" in="SourceGraphic" in2="effect1_dropShadow_49_5" result="shape"/>
</filter>
</defs>
</svg>
